<svg xmlns="http://www.w3.org/2000/svg" width="44" height="38" viewBox="0 0 44 38" shape-rendering="crispEdges"><rect x="1" y="0" width="42" height="1" fill="#2a2a44"/><rect x="0" y="1" width="1" height="1" fill="#2a2a44"/><rect x="43" y="1" width="1" height="1" fill="#2a2a44"/><rect x="0" y="2" width="1" height="1" fill="#2a2a44"/><rect x="43" y="2" width="1" height="1" fill="#2a2a44"/><rect x="0" y="3" width="1" height="1" fill="#2a2a44"/><rect x="20" y="3" width="4" height="1" fill="#070710"/><rect x="43" y="3" width="1" height="1" fill="#2a2a44"/><rect x="0" y="4" width="1" height="1" fill="#2a2a44"/><rect x="18" y="4" width="2" height="1" fill="#070710"/><rect x="20" y="4" width="4" height="1" fill="#7ce8ff"/><rect x="24" y="4" width="2" height="1" fill="#070710"/><rect x="38" y="4" width="1" height="1" fill="#ffffff"/><rect x="43" y="4" width="1" height="1" fill="#2a2a44"/><rect x="0" y="5" width="1" height="1" fill="#2a2a44"/><rect x="4" y="5" width="1" height="1" fill="#ffffff"/><rect x="16" y="5" width="2" height="1" fill="#070710"/><rect x="18" y="5" width="3" height="1" fill="#7ce8ff"/><rect x="21" y="5" width="1" height="1" fill="#ffffff"/><rect x="22" y="5" width="4" height="1" fill="#7ce8ff"/><rect x="26" y="5" width="2" height="1" fill="#070710"/><rect x="43" y="5" width="1" height="1" fill="#2a2a44"/><rect x="0" y="6" width="1" height="1" fill="#2a2a44"/><rect x="3" y="6" width="3" height="1" fill="#ffffff"/><rect x="14" y="6" width="2" height="1" fill="#070710"/><rect x="16" y="6" width="3" height="1" fill="#7ce8ff"/><rect x="19" y="6" width="2" height="1" fill="#ffffff"/><rect x="21" y="6" width="7" height="1" fill="#7ce8ff"/><rect x="28" y="6" width="2" height="1" fill="#070710"/><rect x="43" y="6" width="1" height="1" fill="#2a2a44"/><rect x="0" y="7" width="1" height="1" fill="#2a2a44"/><rect x="4" y="7" width="1" height="1" fill="#ffffff"/><rect x="13" y="7" width="1" height="1" fill="#070710"/><rect x="14" y="7" width="4" height="1" fill="#7ce8ff"/><rect x="18" y="7" width="2" height="1" fill="#ffffff"/><rect x="20" y="7" width="10" height="1" fill="#7ce8ff"/><rect x="30" y="7" width="1" height="1" fill="#070710"/><rect x="43" y="7" width="1" height="1" fill="#2a2a44"/><rect x="0" y="8" width="1" height="1" fill="#2a2a44"/><rect x="13" y="8" width="1" height="1" fill="#070710"/><rect x="14" y="8" width="2" height="1" fill="#3aa7d8"/><rect x="16" y="8" width="12" height="1" fill="#7ce8ff"/><rect x="28" y="8" width="2" height="1" fill="#1c5c8c"/><rect x="30" y="8" width="1" height="1" fill="#070710"/><rect x="43" y="8" width="1" height="1" fill="#2a2a44"/><rect x="0" y="9" width="1" height="1" fill="#2a2a44"/><rect x="13" y="9" width="1" height="1" fill="#070710"/><rect x="14" y="9" width="4" height="1" fill="#3aa7d8"/><rect x="18" y="9" width="8" height="1" fill="#7ce8ff"/><rect x="26" y="9" width="4" height="1" fill="#1c5c8c"/><rect x="30" y="9" width="1" height="1" fill="#070710"/><rect x="43" y="9" width="1" height="1" fill="#2a2a44"/><rect x="0" y="10" width="1" height="1" fill="#2a2a44"/><rect x="13" y="10" width="1" height="1" fill="#070710"/><rect x="14" y="10" width="6" height="1" fill="#3aa7d8"/><rect x="20" y="10" width="4" height="1" fill="#7ce8ff"/><rect x="24" y="10" width="6" height="1" fill="#1c5c8c"/><rect x="30" y="10" width="1" height="1" fill="#070710"/><rect x="39" y="10" width="1" height="1" fill="#7ce8ff"/><rect x="43" y="10" width="1" height="1" fill="#2a2a44"/><rect x="0" y="11" width="1" height="1" fill="#2a2a44"/><rect x="13" y="11" width="1" height="1" fill="#070710"/><rect x="14" y="11" width="8" height="1" fill="#3aa7d8"/><rect x="22" y="11" width="8" height="1" fill="#1c5c8c"/><rect x="30" y="11" width="1" height="1" fill="#070710"/><rect x="38" y="11" width="3" height="1" fill="#7ce8ff"/><rect x="43" y="11" width="1" height="1" fill="#2a2a44"/><rect x="0" y="12" width="1" height="1" fill="#2a2a44"/><rect x="13" y="12" width="1" height="1" fill="#070710"/><rect x="14" y="12" width="8" height="1" fill="#3aa7d8"/><rect x="22" y="12" width="8" height="1" fill="#1c5c8c"/><rect x="30" y="12" width="1" height="1" fill="#070710"/><rect x="39" y="12" width="1" height="1" fill="#7ce8ff"/><rect x="43" y="12" width="1" height="1" fill="#2a2a44"/><rect x="0" y="13" width="1" height="1" fill="#2a2a44"/><rect x="13" y="13" width="1" height="1" fill="#070710"/><rect x="14" y="13" width="8" height="1" fill="#3aa7d8"/><rect x="22" y="13" width="8" height="1" fill="#1c5c8c"/><rect x="30" y="13" width="1" height="1" fill="#070710"/><rect x="43" y="13" width="1" height="1" fill="#2a2a44"/><rect x="0" y="14" width="1" height="1" fill="#2a2a44"/><rect x="13" y="14" width="1" height="1" fill="#070710"/><rect x="14" y="14" width="8" height="1" fill="#3aa7d8"/><rect x="22" y="14" width="8" height="1" fill="#1c5c8c"/><rect x="30" y="14" width="1" height="1" fill="#070710"/><rect x="43" y="14" width="1" height="1" fill="#2a2a44"/><rect x="0" y="15" width="1" height="1" fill="#2a2a44"/><rect x="5" y="15" width="1" height="1" fill="#7ce8ff"/><rect x="13" y="15" width="1" height="1" fill="#070710"/><rect x="14" y="15" width="8" height="1" fill="#3aa7d8"/><rect x="22" y="15" width="8" height="1" fill="#1c5c8c"/><rect x="30" y="15" width="1" height="1" fill="#070710"/><rect x="43" y="15" width="1" height="1" fill="#2a2a44"/><rect x="0" y="16" width="1" height="1" fill="#2a2a44"/><rect x="14" y="16" width="2" height="1" fill="#070710"/><rect x="16" y="16" width="6" height="1" fill="#3aa7d8"/><rect x="22" y="16" width="6" height="1" fill="#1c5c8c"/><rect x="28" y="16" width="2" height="1" fill="#070710"/><rect x="43" y="16" width="1" height="1" fill="#2a2a44"/><rect x="0" y="17" width="1" height="1" fill="#2a2a44"/><rect x="16" y="17" width="2" height="1" fill="#070710"/><rect x="18" y="17" width="4" height="1" fill="#3aa7d8"/><rect x="22" y="17" width="4" height="1" fill="#1c5c8c"/><rect x="26" y="17" width="2" height="1" fill="#070710"/><rect x="43" y="17" width="1" height="1" fill="#2a2a44"/><rect x="0" y="18" width="1" height="1" fill="#2a2a44"/><rect x="18" y="18" width="2" height="1" fill="#070710"/><rect x="20" y="18" width="2" height="1" fill="#3aa7d8"/><rect x="22" y="18" width="2" height="1" fill="#1c5c8c"/><rect x="24" y="18" width="2" height="1" fill="#070710"/><rect x="43" y="18" width="1" height="1" fill="#2a2a44"/><rect x="0" y="19" width="1" height="1" fill="#2a2a44"/><rect x="20" y="19" width="4" height="1" fill="#070710"/><rect x="43" y="19" width="1" height="1" fill="#2a2a44"/><rect x="0" y="20" width="1" height="1" fill="#2a2a44"/><rect x="43" y="20" width="1" height="1" fill="#2a2a44"/><rect x="0" y="21" width="1" height="1" fill="#2a2a44"/><rect x="43" y="21" width="1" height="1" fill="#2a2a44"/><rect x="0" y="22" width="1" height="1" fill="#2a2a44"/><rect x="43" y="22" width="1" height="1" fill="#2a2a44"/><rect x="0" y="23" width="1" height="1" fill="#2a2a44"/><rect x="43" y="23" width="1" height="1" fill="#2a2a44"/><rect x="0" y="24" width="1" height="1" fill="#2a2a44"/><rect x="7" y="24" width="4" height="1" fill="#f2f4ff"/><rect x="13" y="24" width="5" height="1" fill="#f2f4ff"/><rect x="19" y="24" width="1" height="1" fill="#f2f4ff"/><rect x="23" y="24" width="1" height="1" fill="#f2f4ff"/><rect x="25" y="24" width="5" height="1" fill="#f2f4ff"/><rect x="31" y="24" width="1" height="1" fill="#f2f4ff"/><rect x="43" y="24" width="1" height="1" fill="#2a2a44"/><rect x="0" y="25" width="1" height="1" fill="#2a2a44"/><rect x="7" y="25" width="1" height="1" fill="#f2f4ff"/><rect x="8" y="25" width="3" height="1" fill="#a82545"/><rect x="11" y="25" width="1" height="1" fill="#f2f4ff"/><rect x="14" y="25" width="1" height="1" fill="#a82545"/><rect x="15" y="25" width="1" height="1" fill="#f2f4ff"/><rect x="16" y="25" width="3" height="1" fill="#a82545"/><rect x="19" y="25" width="1" height="1" fill="#f2f4ff"/><rect x="20" y="25" width="1" height="1" fill="#a82545"/><rect x="23" y="25" width="1" height="1" fill="#f2f4ff"/><rect x="24" y="25" width="1" height="1" fill="#a82545"/><rect x="25" y="25" width="1" height="1" fill="#f2f4ff"/><rect x="26" y="25" width="5" height="1" fill="#a82545"/><rect x="31" y="25" width="1" height="1" fill="#f2f4ff"/><rect x="32" y="25" width="1" height="1" fill="#a82545"/><rect x="43" y="25" width="1" height="1" fill="#2a2a44"/><rect x="0" y="26" width="1" height="1" fill="#2a2a44"/><rect x="7" y="26" width="1" height="1" fill="#f2f4ff"/><rect x="8" y="26" width="1" height="1" fill="#a82545"/><rect x="11" y="26" width="1" height="1" fill="#f2f4ff"/><rect x="12" y="26" width="1" height="1" fill="#a82545"/><rect x="15" y="26" width="1" height="1" fill="#f2f4ff"/><rect x="16" y="26" width="1" height="1" fill="#a82545"/><rect x="20" y="26" width="1" height="1" fill="#f2f4ff"/><rect x="22" y="26" width="1" height="1" fill="#f2f4ff"/><rect x="24" y="26" width="1" height="1" fill="#a82545"/><rect x="25" y="26" width="1" height="1" fill="#f2f4ff"/><rect x="26" y="26" width="1" height="1" fill="#a82545"/><rect x="31" y="26" width="1" height="1" fill="#f2f4ff"/><rect x="32" y="26" width="1" height="1" fill="#a82545"/><rect x="43" y="26" width="1" height="1" fill="#2a2a44"/><rect x="0" y="27" width="1" height="1" fill="#2a2a44"/><rect x="7" y="27" width="4" height="1" fill="#f2f4ff"/><rect x="12" y="27" width="1" height="1" fill="#a82545"/><rect x="15" y="27" width="1" height="1" fill="#f2f4ff"/><rect x="16" y="27" width="1" height="1" fill="#a82545"/><rect x="21" y="27" width="1" height="1" fill="#f2f4ff"/><rect x="23" y="27" width="1" height="1" fill="#a82545"/><rect x="25" y="27" width="4" height="1" fill="#f2f4ff"/><rect x="31" y="27" width="1" height="1" fill="#f2f4ff"/><rect x="32" y="27" width="1" height="1" fill="#a82545"/><rect x="43" y="27" width="1" height="1" fill="#2a2a44"/><rect x="0" y="28" width="1" height="1" fill="#2a2a44"/><rect x="7" y="28" width="1" height="1" fill="#f2f4ff"/><rect x="8" y="28" width="4" height="1" fill="#a82545"/><rect x="15" y="28" width="1" height="1" fill="#f2f4ff"/><rect x="16" y="28" width="1" height="1" fill="#a82545"/><rect x="20" y="28" width="1" height="1" fill="#f2f4ff"/><rect x="22" y="28" width="1" height="1" fill="#f2f4ff"/><rect x="25" y="28" width="1" height="1" fill="#f2f4ff"/><rect x="26" y="28" width="4" height="1" fill="#a82545"/><rect x="31" y="28" width="1" height="1" fill="#f2f4ff"/><rect x="32" y="28" width="1" height="1" fill="#a82545"/><rect x="43" y="28" width="1" height="1" fill="#2a2a44"/><rect x="0" y="29" width="1" height="1" fill="#2a2a44"/><rect x="7" y="29" width="1" height="1" fill="#f2f4ff"/><rect x="8" y="29" width="1" height="1" fill="#a82545"/><rect x="15" y="29" width="1" height="1" fill="#f2f4ff"/><rect x="16" y="29" width="1" height="1" fill="#a82545"/><rect x="19" y="29" width="1" height="1" fill="#f2f4ff"/><rect x="21" y="29" width="1" height="1" fill="#a82545"/><rect x="23" y="29" width="1" height="1" fill="#f2f4ff"/><rect x="25" y="29" width="1" height="1" fill="#f2f4ff"/><rect x="26" y="29" width="1" height="1" fill="#a82545"/><rect x="31" y="29" width="1" height="1" fill="#f2f4ff"/><rect x="32" y="29" width="1" height="1" fill="#a82545"/><rect x="43" y="29" width="1" height="1" fill="#2a2a44"/><rect x="0" y="30" width="1" height="1" fill="#2a2a44"/><rect x="7" y="30" width="1" height="1" fill="#f2f4ff"/><rect x="8" y="30" width="1" height="1" fill="#a82545"/><rect x="13" y="30" width="5" height="1" fill="#f2f4ff"/><rect x="19" y="30" width="1" height="1" fill="#f2f4ff"/><rect x="20" y="30" width="1" height="1" fill="#a82545"/><rect x="23" y="30" width="1" height="1" fill="#f2f4ff"/><rect x="24" y="30" width="1" height="1" fill="#a82545"/><rect x="25" y="30" width="5" height="1" fill="#f2f4ff"/><rect x="31" y="30" width="5" height="1" fill="#f2f4ff"/><rect x="43" y="30" width="1" height="1" fill="#2a2a44"/><rect x="0" y="31" width="1" height="1" fill="#2a2a44"/><rect x="8" y="31" width="1" height="1" fill="#a82545"/><rect x="14" y="31" width="5" height="1" fill="#a82545"/><rect x="20" y="31" width="1" height="1" fill="#a82545"/><rect x="24" y="31" width="1" height="1" fill="#a82545"/><rect x="26" y="31" width="5" height="1" fill="#a82545"/><rect x="32" y="31" width="5" height="1" fill="#a82545"/><rect x="43" y="31" width="1" height="1" fill="#2a2a44"/><rect x="0" y="32" width="1" height="1" fill="#2a2a44"/><rect x="43" y="32" width="1" height="1" fill="#2a2a44"/><rect x="0" y="33" width="1" height="1" fill="#2a2a44"/><rect x="7" y="33" width="1" height="1" fill="#ff4d6d"/><rect x="9" y="33" width="1" height="1" fill="#ff4d6d"/><rect x="11" y="33" width="1" height="1" fill="#ff4d6d"/><rect x="13" y="33" width="1" height="1" fill="#ff4d6d"/><rect x="15" y="33" width="1" height="1" fill="#ff4d6d"/><rect x="17" y="33" width="1" height="1" fill="#ff4d6d"/><rect x="19" y="33" width="1" height="1" fill="#ff4d6d"/><rect x="21" y="33" width="1" height="1" fill="#ff4d6d"/><rect x="23" y="33" width="1" height="1" fill="#ff4d6d"/><rect x="25" y="33" width="1" height="1" fill="#ff4d6d"/><rect x="27" y="33" width="1" height="1" fill="#ff4d6d"/><rect x="29" y="33" width="1" height="1" fill="#ff4d6d"/><rect x="31" y="33" width="1" height="1" fill="#ff4d6d"/><rect x="33" y="33" width="1" height="1" fill="#ff4d6d"/><rect x="35" y="33" width="1" height="1" fill="#ff4d6d"/><rect x="43" y="33" width="1" height="1" fill="#2a2a44"/><rect x="0" y="34" width="1" height="1" fill="#2a2a44"/><rect x="43" y="34" width="1" height="1" fill="#2a2a44"/><rect x="0" y="35" width="1" height="1" fill="#2a2a44"/><rect x="43" y="35" width="1" height="1" fill="#2a2a44"/><rect x="0" y="36" width="1" height="1" fill="#2a2a44"/><rect x="43" y="36" width="1" height="1" fill="#2a2a44"/><rect x="1" y="37" width="42" height="1" fill="#2a2a44"/></svg>