<svg xmlns="http://www.w3.org/2000/svg" width="63" height="27" viewBox="0 0 63 27" shape-rendering="crispEdges"><rect x="0" y="0" width="1" height="1" fill="#0f0f1b"/><rect x="1" y="0" width="61" height="1" fill="#2a2a44"/><rect x="62" y="0" width="1" height="1" fill="#0f0f1b"/><rect x="0" y="1" width="1" height="1" fill="#2a2a44"/><rect x="1" y="1" width="61" height="1" fill="#0f0f1b"/><rect x="62" y="1" width="1" height="1" fill="#2a2a44"/><rect x="0" y="2" width="1" height="1" fill="#2a2a44"/><rect x="1" y="2" width="61" height="1" fill="#0f0f1b"/><rect x="62" y="2" width="1" height="1" fill="#2a2a44"/><rect x="0" y="3" width="1" height="1" fill="#2a2a44"/><rect x="1" y="3" width="61" height="1" fill="#0f0f1b"/><rect x="62" y="3" width="1" height="1" fill="#2a2a44"/><rect x="0" y="4" width="1" height="1" fill="#2a2a44"/><rect x="1" y="4" width="61" height="1" fill="#0f0f1b"/><rect x="62" y="4" width="1" height="1" fill="#2a2a44"/><rect x="0" y="5" width="1" height="1" fill="#2a2a44"/><rect x="1" y="5" width="11" height="1" fill="#0f0f1b"/><rect x="12" y="5" width="4" height="1" fill="#070710"/><rect x="16" y="5" width="46" height="1" fill="#0f0f1b"/><rect x="62" y="5" width="1" height="1" fill="#2a2a44"/><rect x="0" y="6" width="1" height="1" fill="#2a2a44"/><rect x="1" y="6" width="9" height="1" fill="#0f0f1b"/><rect x="10" y="6" width="2" height="1" fill="#070710"/><rect x="12" y="6" width="4" height="1" fill="#7ce8ff"/><rect x="16" y="6" width="2" height="1" fill="#070710"/><rect x="18" y="6" width="44" height="1" fill="#0f0f1b"/><rect x="62" y="6" width="1" height="1" fill="#2a2a44"/><rect x="0" y="7" width="1" height="1" fill="#2a2a44"/><rect x="1" y="7" width="7" height="1" fill="#0f0f1b"/><rect x="8" y="7" width="2" height="1" fill="#070710"/><rect x="10" y="7" width="3" height="1" fill="#7ce8ff"/><rect x="13" y="7" width="1" height="1" fill="#ffffff"/><rect x="14" y="7" width="4" height="1" fill="#7ce8ff"/><rect x="18" y="7" width="2" height="1" fill="#070710"/><rect x="20" y="7" width="42" height="1" fill="#0f0f1b"/><rect x="62" y="7" width="1" height="1" fill="#2a2a44"/><rect x="0" y="8" width="1" height="1" fill="#2a2a44"/><rect x="1" y="8" width="5" height="1" fill="#0f0f1b"/><rect x="6" y="8" width="2" height="1" fill="#070710"/><rect x="8" y="8" width="3" height="1" fill="#7ce8ff"/><rect x="11" y="8" width="2" height="1" fill="#ffffff"/><rect x="13" y="8" width="7" height="1" fill="#7ce8ff"/><rect x="20" y="8" width="2" height="1" fill="#070710"/><rect x="22" y="8" width="40" height="1" fill="#0f0f1b"/><rect x="62" y="8" width="1" height="1" fill="#2a2a44"/><rect x="0" y="9" width="1" height="1" fill="#2a2a44"/><rect x="1" y="9" width="4" height="1" fill="#0f0f1b"/><rect x="5" y="9" width="1" height="1" fill="#070710"/><rect x="6" y="9" width="4" height="1" fill="#7ce8ff"/><rect x="10" y="9" width="2" height="1" fill="#ffffff"/><rect x="12" y="9" width="10" height="1" fill="#7ce8ff"/><rect x="22" y="9" width="1" height="1" fill="#070710"/><rect x="23" y="9" width="5" height="1" fill="#0f0f1b"/><rect x="28" y="9" width="4" height="1" fill="#f2f4ff"/><rect x="32" y="9" width="2" height="1" fill="#0f0f1b"/><rect x="34" y="9" width="5" height="1" fill="#f2f4ff"/><rect x="39" y="9" width="1" height="1" fill="#0f0f1b"/><rect x="40" y="9" width="1" height="1" fill="#f2f4ff"/><rect x="41" y="9" width="3" height="1" fill="#0f0f1b"/><rect x="44" y="9" width="1" height="1" fill="#f2f4ff"/><rect x="45" y="9" width="1" height="1" fill="#0f0f1b"/><rect x="46" y="9" width="5" height="1" fill="#f2f4ff"/><rect x="51" y="9" width="1" height="1" fill="#0f0f1b"/><rect x="52" y="9" width="1" height="1" fill="#f2f4ff"/><rect x="53" y="9" width="9" height="1" fill="#0f0f1b"/><rect x="62" y="9" width="1" height="1" fill="#2a2a44"/><rect x="0" y="10" width="1" height="1" fill="#2a2a44"/><rect x="1" y="10" width="4" height="1" fill="#0f0f1b"/><rect x="5" y="10" width="1" height="1" fill="#070710"/><rect x="6" y="10" width="2" height="1" fill="#3aa7d8"/><rect x="8" y="10" width="12" height="1" fill="#7ce8ff"/><rect x="20" y="10" width="2" height="1" fill="#1c5c8c"/><rect x="22" y="10" width="1" height="1" fill="#070710"/><rect x="23" y="10" width="5" height="1" fill="#0f0f1b"/><rect x="28" y="10" width="1" height="1" fill="#f2f4ff"/><rect x="29" y="10" width="3" height="1" fill="#a82545"/><rect x="32" y="10" width="1" height="1" fill="#f2f4ff"/><rect x="33" y="10" width="2" height="1" fill="#0f0f1b"/><rect x="35" y="10" width="1" height="1" fill="#a82545"/><rect x="36" y="10" width="1" height="1" fill="#f2f4ff"/><rect x="37" y="10" width="3" height="1" fill="#a82545"/><rect x="40" y="10" width="1" height="1" fill="#f2f4ff"/><rect x="41" y="10" width="1" height="1" fill="#a82545"/><rect x="42" y="10" width="2" height="1" fill="#0f0f1b"/><rect x="44" y="10" width="1" height="1" fill="#f2f4ff"/><rect x="45" y="10" width="1" height="1" fill="#a82545"/><rect x="46" y="10" width="1" height="1" fill="#f2f4ff"/><rect x="47" y="10" width="5" height="1" fill="#a82545"/><rect x="52" y="10" width="1" height="1" fill="#f2f4ff"/><rect x="53" y="10" width="1" height="1" fill="#a82545"/><rect x="54" y="10" width="8" height="1" fill="#0f0f1b"/><rect x="62" y="10" width="1" height="1" fill="#2a2a44"/><rect x="0" y="11" width="1" height="1" fill="#2a2a44"/><rect x="1" y="11" width="4" height="1" fill="#0f0f1b"/><rect x="5" y="11" width="1" height="1" fill="#070710"/><rect x="6" y="11" width="4" height="1" fill="#3aa7d8"/><rect x="10" y="11" width="8" height="1" fill="#7ce8ff"/><rect x="18" y="11" width="4" height="1" fill="#1c5c8c"/><rect x="22" y="11" width="1" height="1" fill="#070710"/><rect x="23" y="11" width="5" height="1" fill="#0f0f1b"/><rect x="28" y="11" width="1" height="1" fill="#f2f4ff"/><rect x="29" y="11" width="1" height="1" fill="#a82545"/><rect x="30" y="11" width="2" height="1" fill="#0f0f1b"/><rect x="32" y="11" width="1" height="1" fill="#f2f4ff"/><rect x="33" y="11" width="1" height="1" fill="#a82545"/><rect x="34" y="11" width="2" height="1" fill="#0f0f1b"/><rect x="36" y="11" width="1" height="1" fill="#f2f4ff"/><rect x="37" y="11" width="1" height="1" fill="#a82545"/><rect x="38" y="11" width="3" height="1" fill="#0f0f1b"/><rect x="41" y="11" width="1" height="1" fill="#f2f4ff"/><rect x="42" y="11" width="1" height="1" fill="#0f0f1b"/><rect x="43" y="11" width="1" height="1" fill="#f2f4ff"/><rect x="44" y="11" width="1" height="1" fill="#0f0f1b"/><rect x="45" y="11" width="1" height="1" fill="#a82545"/><rect x="46" y="11" width="1" height="1" fill="#f2f4ff"/><rect x="47" y="11" width="1" height="1" fill="#a82545"/><rect x="48" y="11" width="4" height="1" fill="#0f0f1b"/><rect x="52" y="11" width="1" height="1" fill="#f2f4ff"/><rect x="53" y="11" width="1" height="1" fill="#a82545"/><rect x="54" y="11" width="8" height="1" fill="#0f0f1b"/><rect x="62" y="11" width="1" height="1" fill="#2a2a44"/><rect x="0" y="12" width="1" height="1" fill="#2a2a44"/><rect x="1" y="12" width="4" height="1" fill="#0f0f1b"/><rect x="5" y="12" width="1" height="1" fill="#070710"/><rect x="6" y="12" width="6" height="1" fill="#3aa7d8"/><rect x="12" y="12" width="4" height="1" fill="#7ce8ff"/><rect x="16" y="12" width="6" height="1" fill="#1c5c8c"/><rect x="22" y="12" width="1" height="1" fill="#070710"/><rect x="23" y="12" width="5" height="1" fill="#0f0f1b"/><rect x="28" y="12" width="4" height="1" fill="#f2f4ff"/><rect x="32" y="12" width="1" height="1" fill="#0f0f1b"/><rect x="33" y="12" width="1" height="1" fill="#a82545"/><rect x="34" y="12" width="2" height="1" fill="#0f0f1b"/><rect x="36" y="12" width="1" height="1" fill="#f2f4ff"/><rect x="37" y="12" width="1" height="1" fill="#a82545"/><rect x="38" y="12" width="4" height="1" fill="#0f0f1b"/><rect x="42" y="12" width="1" height="1" fill="#f2f4ff"/><rect x="43" y="12" width="1" height="1" fill="#0f0f1b"/><rect x="44" y="12" width="1" height="1" fill="#a82545"/><rect x="45" y="12" width="1" height="1" fill="#0f0f1b"/><rect x="46" y="12" width="4" height="1" fill="#f2f4ff"/><rect x="50" y="12" width="2" height="1" fill="#0f0f1b"/><rect x="52" y="12" width="1" height="1" fill="#f2f4ff"/><rect x="53" y="12" width="1" height="1" fill="#a82545"/><rect x="54" y="12" width="8" height="1" fill="#0f0f1b"/><rect x="62" y="12" width="1" height="1" fill="#2a2a44"/><rect x="0" y="13" width="1" height="1" fill="#2a2a44"/><rect x="1" y="13" width="4" height="1" fill="#0f0f1b"/><rect x="5" y="13" width="1" height="1" fill="#070710"/><rect x="6" y="13" width="8" height="1" fill="#3aa7d8"/><rect x="14" y="13" width="8" height="1" fill="#1c5c8c"/><rect x="22" y="13" width="1" height="1" fill="#070710"/><rect x="23" y="13" width="5" height="1" fill="#0f0f1b"/><rect x="28" y="13" width="1" height="1" fill="#f2f4ff"/><rect x="29" y="13" width="4" height="1" fill="#a82545"/><rect x="33" y="13" width="3" height="1" fill="#0f0f1b"/><rect x="36" y="13" width="1" height="1" fill="#f2f4ff"/><rect x="37" y="13" width="1" height="1" fill="#a82545"/><rect x="38" y="13" width="3" height="1" fill="#0f0f1b"/><rect x="41" y="13" width="1" height="1" fill="#f2f4ff"/><rect x="42" y="13" width="1" height="1" fill="#0f0f1b"/><rect x="43" y="13" width="1" height="1" fill="#f2f4ff"/><rect x="44" y="13" width="2" height="1" fill="#0f0f1b"/><rect x="46" y="13" width="1" height="1" fill="#f2f4ff"/><rect x="47" y="13" width="4" height="1" fill="#a82545"/><rect x="51" y="13" width="1" height="1" fill="#0f0f1b"/><rect x="52" y="13" width="1" height="1" fill="#f2f4ff"/><rect x="53" y="13" width="1" height="1" fill="#a82545"/><rect x="54" y="13" width="8" height="1" fill="#0f0f1b"/><rect x="62" y="13" width="1" height="1" fill="#2a2a44"/><rect x="0" y="14" width="1" height="1" fill="#2a2a44"/><rect x="1" y="14" width="4" height="1" fill="#0f0f1b"/><rect x="5" y="14" width="1" height="1" fill="#070710"/><rect x="6" y="14" width="8" height="1" fill="#3aa7d8"/><rect x="14" y="14" width="8" height="1" fill="#1c5c8c"/><rect x="22" y="14" width="1" height="1" fill="#070710"/><rect x="23" y="14" width="5" height="1" fill="#0f0f1b"/><rect x="28" y="14" width="1" height="1" fill="#f2f4ff"/><rect x="29" y="14" width="1" height="1" fill="#a82545"/><rect x="30" y="14" width="6" height="1" fill="#0f0f1b"/><rect x="36" y="14" width="1" height="1" fill="#f2f4ff"/><rect x="37" y="14" width="1" height="1" fill="#a82545"/><rect x="38" y="14" width="2" height="1" fill="#0f0f1b"/><rect x="40" y="14" width="1" height="1" fill="#f2f4ff"/><rect x="41" y="14" width="1" height="1" fill="#0f0f1b"/><rect x="42" y="14" width="1" height="1" fill="#a82545"/><rect x="43" y="14" width="1" height="1" fill="#0f0f1b"/><rect x="44" y="14" width="1" height="1" fill="#f2f4ff"/><rect x="45" y="14" width="1" height="1" fill="#0f0f1b"/><rect x="46" y="14" width="1" height="1" fill="#f2f4ff"/><rect x="47" y="14" width="1" height="1" fill="#a82545"/><rect x="48" y="14" width="4" height="1" fill="#0f0f1b"/><rect x="52" y="14" width="1" height="1" fill="#f2f4ff"/><rect x="53" y="14" width="1" height="1" fill="#a82545"/><rect x="54" y="14" width="8" height="1" fill="#0f0f1b"/><rect x="62" y="14" width="1" height="1" fill="#2a2a44"/><rect x="0" y="15" width="1" height="1" fill="#2a2a44"/><rect x="1" y="15" width="4" height="1" fill="#0f0f1b"/><rect x="5" y="15" width="1" height="1" fill="#070710"/><rect x="6" y="15" width="8" height="1" fill="#3aa7d8"/><rect x="14" y="15" width="8" height="1" fill="#1c5c8c"/><rect x="22" y="15" width="1" height="1" fill="#070710"/><rect x="23" y="15" width="5" height="1" fill="#0f0f1b"/><rect x="28" y="15" width="1" height="1" fill="#f2f4ff"/><rect x="29" y="15" width="1" height="1" fill="#a82545"/><rect x="30" y="15" width="4" height="1" fill="#0f0f1b"/><rect x="34" y="15" width="5" height="1" fill="#f2f4ff"/><rect x="39" y="15" width="1" height="1" fill="#0f0f1b"/><rect x="40" y="15" width="1" height="1" fill="#f2f4ff"/><rect x="41" y="15" width="1" height="1" fill="#a82545"/><rect x="42" y="15" width="2" height="1" fill="#0f0f1b"/><rect x="44" y="15" width="1" height="1" fill="#f2f4ff"/><rect x="45" y="15" width="1" height="1" fill="#a82545"/><rect x="46" y="15" width="5" height="1" fill="#f2f4ff"/><rect x="51" y="15" width="1" height="1" fill="#0f0f1b"/><rect x="52" y="15" width="5" height="1" fill="#f2f4ff"/><rect x="57" y="15" width="5" height="1" fill="#0f0f1b"/><rect x="62" y="15" width="1" height="1" fill="#2a2a44"/><rect x="0" y="16" width="1" height="1" fill="#2a2a44"/><rect x="1" y="16" width="4" height="1" fill="#0f0f1b"/><rect x="5" y="16" width="1" height="1" fill="#070710"/><rect x="6" y="16" width="8" height="1" fill="#3aa7d8"/><rect x="14" y="16" width="8" height="1" fill="#1c5c8c"/><rect x="22" y="16" width="1" height="1" fill="#070710"/><rect x="23" y="16" width="6" height="1" fill="#0f0f1b"/><rect x="29" y="16" width="1" height="1" fill="#a82545"/><rect x="30" y="16" width="5" height="1" fill="#0f0f1b"/><rect x="35" y="16" width="5" height="1" fill="#a82545"/><rect x="40" y="16" width="1" height="1" fill="#0f0f1b"/><rect x="41" y="16" width="1" height="1" fill="#a82545"/><rect x="42" y="16" width="3" height="1" fill="#0f0f1b"/><rect x="45" y="16" width="1" height="1" fill="#a82545"/><rect x="46" y="16" width="1" height="1" fill="#0f0f1b"/><rect x="47" y="16" width="5" height="1" fill="#a82545"/><rect x="52" y="16" width="1" height="1" fill="#0f0f1b"/><rect x="53" y="16" width="5" height="1" fill="#a82545"/><rect x="58" y="16" width="4" height="1" fill="#0f0f1b"/><rect x="62" y="16" width="1" height="1" fill="#2a2a44"/><rect x="0" y="17" width="1" height="1" fill="#2a2a44"/><rect x="1" y="17" width="4" height="1" fill="#0f0f1b"/><rect x="5" y="17" width="1" height="1" fill="#070710"/><rect x="6" y="17" width="8" height="1" fill="#3aa7d8"/><rect x="14" y="17" width="8" height="1" fill="#1c5c8c"/><rect x="22" y="17" width="1" height="1" fill="#070710"/><rect x="23" y="17" width="39" height="1" fill="#0f0f1b"/><rect x="62" y="17" width="1" height="1" fill="#2a2a44"/><rect x="0" y="18" width="1" height="1" fill="#2a2a44"/><rect x="1" y="18" width="5" height="1" fill="#0f0f1b"/><rect x="6" y="18" width="2" height="1" fill="#070710"/><rect x="8" y="18" width="6" height="1" fill="#3aa7d8"/><rect x="14" y="18" width="6" height="1" fill="#1c5c8c"/><rect x="20" y="18" width="2" height="1" fill="#070710"/><rect x="22" y="18" width="40" height="1" fill="#0f0f1b"/><rect x="62" y="18" width="1" height="1" fill="#2a2a44"/><rect x="0" y="19" width="1" height="1" fill="#2a2a44"/><rect x="1" y="19" width="7" height="1" fill="#0f0f1b"/><rect x="8" y="19" width="2" height="1" fill="#070710"/><rect x="10" y="19" width="4" height="1" fill="#3aa7d8"/><rect x="14" y="19" width="4" height="1" fill="#1c5c8c"/><rect x="18" y="19" width="2" height="1" fill="#070710"/><rect x="20" y="19" width="8" height="1" fill="#0f0f1b"/><rect x="28" y="19" width="1" height="1" fill="#ff4d6d"/><rect x="29" y="19" width="1" height="1" fill="#0f0f1b"/><rect x="30" y="19" width="1" height="1" fill="#ff4d6d"/><rect x="31" y="19" width="1" height="1" fill="#0f0f1b"/><rect x="32" y="19" width="1" height="1" fill="#ff4d6d"/><rect x="33" y="19" width="1" height="1" fill="#0f0f1b"/><rect x="34" y="19" width="1" height="1" fill="#ff4d6d"/><rect x="35" y="19" width="1" height="1" fill="#0f0f1b"/><rect x="36" y="19" width="1" height="1" fill="#ff4d6d"/><rect x="37" y="19" width="1" height="1" fill="#0f0f1b"/><rect x="38" y="19" width="1" height="1" fill="#ff4d6d"/><rect x="39" y="19" width="1" height="1" fill="#0f0f1b"/><rect x="40" y="19" width="1" height="1" fill="#ff4d6d"/><rect x="41" y="19" width="1" height="1" fill="#0f0f1b"/><rect x="42" y="19" width="1" height="1" fill="#ff4d6d"/><rect x="43" y="19" width="1" height="1" fill="#0f0f1b"/><rect x="44" y="19" width="1" height="1" fill="#ff4d6d"/><rect x="45" y="19" width="1" height="1" fill="#0f0f1b"/><rect x="46" y="19" width="1" height="1" fill="#ff4d6d"/><rect x="47" y="19" width="1" height="1" fill="#0f0f1b"/><rect x="48" y="19" width="1" height="1" fill="#ff4d6d"/><rect x="49" y="19" width="1" height="1" fill="#0f0f1b"/><rect x="50" y="19" width="1" height="1" fill="#ff4d6d"/><rect x="51" y="19" width="1" height="1" fill="#0f0f1b"/><rect x="52" y="19" width="1" height="1" fill="#ff4d6d"/><rect x="53" y="19" width="1" height="1" fill="#0f0f1b"/><rect x="54" y="19" width="1" height="1" fill="#ff4d6d"/><rect x="55" y="19" width="1" height="1" fill="#0f0f1b"/><rect x="56" y="19" width="1" height="1" fill="#ff4d6d"/><rect x="57" y="19" width="5" height="1" fill="#0f0f1b"/><rect x="62" y="19" width="1" height="1" fill="#2a2a44"/><rect x="0" y="20" width="1" height="1" fill="#2a2a44"/><rect x="1" y="20" width="9" height="1" fill="#0f0f1b"/><rect x="10" y="20" width="2" height="1" fill="#070710"/><rect x="12" y="20" width="2" height="1" fill="#3aa7d8"/><rect x="14" y="20" width="2" height="1" fill="#1c5c8c"/><rect x="16" y="20" width="2" height="1" fill="#070710"/><rect x="18" y="20" width="44" height="1" fill="#0f0f1b"/><rect x="62" y="20" width="1" height="1" fill="#2a2a44"/><rect x="0" y="21" width="1" height="1" fill="#2a2a44"/><rect x="1" y="21" width="11" height="1" fill="#0f0f1b"/><rect x="12" y="21" width="4" height="1" fill="#070710"/><rect x="16" y="21" width="46" height="1" fill="#0f0f1b"/><rect x="62" y="21" width="1" height="1" fill="#2a2a44"/><rect x="0" y="22" width="1" height="1" fill="#2a2a44"/><rect x="1" y="22" width="61" height="1" fill="#0f0f1b"/><rect x="62" y="22" width="1" height="1" fill="#2a2a44"/><rect x="0" y="23" width="1" height="1" fill="#2a2a44"/><rect x="1" y="23" width="61" height="1" fill="#0f0f1b"/><rect x="62" y="23" width="1" height="1" fill="#2a2a44"/><rect x="0" y="24" width="1" height="1" fill="#2a2a44"/><rect x="1" y="24" width="61" height="1" fill="#0f0f1b"/><rect x="62" y="24" width="1" height="1" fill="#2a2a44"/><rect x="0" y="25" width="1" height="1" fill="#2a2a44"/><rect x="1" y="25" width="61" height="1" fill="#0f0f1b"/><rect x="62" y="25" width="1" height="1" fill="#2a2a44"/><rect x="0" y="26" width="1" height="1" fill="#0f0f1b"/><rect x="1" y="26" width="61" height="1" fill="#2a2a44"/><rect x="62" y="26" width="1" height="1" fill="#0f0f1b"/></svg>